<svg xmlns="http://www.w3.org/2000/svg" xmlns:xlink="http://www.w3.org/1999/xlink" width="500" zoomAndPan="magnify" viewBox="0 0 375 374.999991" height="500" preserveAspectRatio="xMidYMid meet" version="1.0"><defs><clipPath id="5562f101f1"><path d="M 187.5 0 C 83.945312 0 0 83.945312 0 187.5 C 0 291.054688 83.945312 375 187.5 375 C 291.054688 375 375 291.054688 375 187.5 C 375 83.945312 291.054688 0 187.5 0 " clip-rule="nonzero"/></clipPath><clipPath id="86290497f0"><path d="M 27.386719 27.386719 L 347.636719 27.386719 L 347.636719 347.636719 L 27.386719 347.636719 Z M 27.386719 27.386719 " clip-rule="nonzero"/></clipPath></defs><g clip-path="url(#5562f101f1)"><rect x="-37.5" width="450" fill="#8f8f8f" y="-37.499999" height="449.999989" fill-opacity="1"/></g><g clip-path="url(#86290497f0)"><path fill="#ffffff" d="M 347.636719 187.511719 C 347.636719 148.683594 333.742188 113.046875 310.667969 85.292969 C 310.523438 85.058594 310.363281 84.824219 310.179688 84.605469 C 309.976562 84.355469 309.75 84.136719 309.515625 83.929688 C 280.121094 49.359375 236.335938 27.386719 187.511719 27.386719 C 138.683594 27.386719 94.898438 49.359375 65.503906 83.929688 C 65.269531 84.136719 65.042969 84.355469 64.839844 84.605469 C 64.65625 84.824219 64.496094 85.058594 64.351562 85.292969 C 41.277344 113.046875 27.386719 148.683594 27.386719 187.511719 C 27.386719 228.964844 43.21875 266.785156 69.15625 295.253906 C 69.210938 295.332031 69.261719 295.414062 69.320312 295.492188 C 69.632812 295.902344 69.992188 296.257812 70.378906 296.566406 C 99.632812 327.964844 141.3125 347.636719 187.511719 347.636719 C 233.699219 347.636719 275.375 327.96875 304.628906 296.578125 C 305.019531 296.269531 305.382812 295.910156 305.699219 295.492188 C 305.757812 295.414062 305.808594 295.332031 305.863281 295.253906 C 331.800781 266.785156 347.636719 228.964844 347.636719 187.511719 Z M 283.398438 273.671875 C 294.199219 249.835938 300.316406 222.339844 301.066406 193.523438 L 335.472656 193.523438 C 334.09375 227.886719 320.957031 259.273438 299.972656 283.753906 C 294.761719 280.113281 289.222656 276.746094 283.398438 273.671875 Z M 75.046875 283.753906 C 54.066406 259.273438 40.925781 227.886719 39.546875 193.523438 L 73.953125 193.523438 C 74.703125 222.339844 80.820312 249.835938 91.621094 273.671875 C 85.796875 276.746094 80.257812 280.113281 75.046875 283.753906 Z M 70.453125 96.898438 C 76.074219 101.164062 82.109375 105.089844 88.5 108.652344 C 79.640625 130.730469 74.628906 155.582031 73.953125 181.496094 L 39.546875 181.496094 C 40.820312 149.714844 52.15625 120.480469 70.453125 96.898438 Z M 335.472656 181.496094 L 301.066406 181.496094 C 300.390625 155.582031 295.378906 130.730469 286.519531 108.652344 C 292.910156 105.089844 298.945312 101.164062 304.566406 96.898438 C 322.863281 120.480469 334.199219 149.714844 335.472656 181.496094 Z M 289.03125 181.496094 L 239.902344 181.496094 C 239.691406 162.707031 238.480469 144.488281 236.351562 127.507812 C 250.285156 124.355469 263.542969 119.863281 275.753906 114.152344 C 283.613281 134.15625 288.359375 157.074219 289.03125 181.496094 Z M 193.523438 333.484375 L 193.523438 263.222656 C 202.964844 263.488281 212.296875 264.375 221.394531 265.855469 C 219.503906 276.253906 217.222656 285.953125 214.574219 294.746094 C 208.617188 314.523438 200.949219 328.417969 193.523438 333.484375 Z M 160.445312 294.746094 C 157.796875 285.953125 155.515625 276.253906 153.625 265.855469 C 162.722656 264.375 172.054688 263.488281 181.496094 263.222656 L 181.496094 333.484375 C 174.070312 328.417969 166.402344 314.523438 160.445312 294.746094 Z M 181.496094 41.535156 L 181.496094 120.773438 C 171.511719 120.5 161.691406 119.535156 152.152344 117.925781 C 154.285156 104.1875 157.066406 91.492188 160.445312 80.273438 C 166.402344 60.496094 174.070312 46.601562 181.496094 41.535156 Z M 214.574219 80.273438 C 217.953125 91.492188 220.734375 104.1875 222.867188 117.925781 C 213.328125 119.535156 203.507812 120.5 193.523438 120.773438 L 193.523438 41.535156 C 200.949219 46.601562 208.617188 60.496094 214.574219 80.273438 Z M 181.496094 132.808594 L 181.496094 181.496094 L 147.144531 181.496094 C 147.351562 163.496094 148.496094 146.070312 150.496094 129.832031 C 160.585938 131.523438 170.960938 132.53125 181.496094 132.808594 Z M 181.496094 193.523438 L 181.496094 251.191406 C 171.40625 251.460938 161.425781 252.40625 151.683594 253.996094 C 148.949219 235.324219 147.390625 214.824219 147.144531 193.523438 Z M 193.523438 251.191406 L 193.523438 193.523438 L 227.875 193.523438 C 227.628906 214.824219 226.070312 235.324219 223.335938 253.996094 C 213.59375 252.40625 203.613281 251.460938 193.523438 251.191406 Z M 193.523438 181.496094 L 193.523438 132.808594 C 204.058594 132.53125 214.433594 131.523438 224.523438 129.832031 C 226.523438 146.070312 227.667969 163.496094 227.875 181.496094 Z M 234.667969 115.570312 C 232.457031 101.460938 229.582031 88.390625 226.089844 76.800781 C 221.890625 62.855469 217.015625 51.753906 211.589844 43.625 C 236.015625 52.3125 257.011719 73.898438 270.96875 103.132812 C 259.738281 108.417969 247.527344 112.597656 234.667969 115.570312 Z M 163.429688 43.625 C 158.003906 51.753906 153.128906 62.855469 148.929688 76.800781 C 145.4375 88.390625 142.5625 101.460938 140.351562 115.570312 C 127.492188 112.597656 115.28125 108.417969 104.050781 103.132812 C 118.007812 73.898438 139.003906 52.3125 163.429688 43.625 Z M 138.667969 127.507812 C 136.539062 144.488281 135.328125 162.707031 135.117188 181.496094 L 85.988281 181.496094 C 86.660156 157.074219 91.40625 134.15625 99.265625 114.152344 C 111.476562 119.863281 124.734375 124.355469 138.667969 127.507812 Z M 85.988281 193.523438 L 135.117188 193.523438 C 135.367188 215.582031 136.996094 236.855469 139.867188 256.261719 C 126.71875 259.167969 114.132812 263.257812 102.449219 268.429688 C 92.695312 246.726562 86.746094 221.082031 85.988281 193.523438 Z M 141.820312 268.128906 C 143.789062 278.941406 146.164062 289.042969 148.929688 298.21875 C 153.128906 312.164062 158.003906 323.265625 163.429688 331.394531 C 141.089844 323.449219 121.617188 304.71875 107.777344 279.210938 C 118.40625 274.539062 129.851562 270.8125 141.820312 268.128906 Z M 211.589844 331.394531 C 217.015625 323.265625 221.890625 312.164062 226.089844 298.21875 C 228.855469 289.042969 231.234375 278.941406 233.199219 268.128906 C 245.167969 270.8125 256.613281 274.539062 267.242188 279.210938 C 253.402344 304.71875 233.929688 323.449219 211.589844 331.394531 Z M 235.152344 256.261719 C 238.023438 236.855469 239.652344 215.582031 239.902344 193.523438 L 289.03125 193.523438 C 288.273438 221.082031 282.324219 246.726562 272.570312 268.429688 C 260.886719 263.257812 248.300781 259.167969 235.152344 256.261719 Z M 296.8125 87.6875 C 292.0625 91.257812 286.996094 94.570312 281.648438 97.609375 C 277.808594 89.636719 273.433594 82.097656 268.542969 75.09375 C 262.636719 66.636719 256.179688 59.230469 249.28125 52.925781 C 267.378906 61.269531 283.523438 73.152344 296.8125 87.6875 Z M 125.738281 52.925781 C 118.839844 59.230469 112.382812 66.636719 106.476562 75.09375 C 101.585938 82.097656 97.210938 89.636719 93.371094 97.609375 C 88.023438 94.570312 82.957031 91.257812 78.207031 87.6875 C 91.496094 73.152344 107.640625 61.269531 125.738281 52.925781 Z M 83.320312 292.648438 C 87.636719 289.714844 92.195312 286.980469 96.960938 284.449219 C 99.875 289.847656 103.046875 295.019531 106.476562 299.925781 C 112.382812 308.382812 118.839844 315.789062 125.738281 322.09375 C 109.898438 314.792969 95.558594 304.78125 83.320312 292.648438 Z M 268.542969 299.925781 C 271.972656 295.019531 275.144531 289.847656 278.058594 284.449219 C 282.824219 286.980469 287.382812 289.714844 291.699219 292.648438 C 279.460938 304.78125 265.121094 314.792969 249.28125 322.09375 C 256.179688 315.789062 262.636719 308.382812 268.542969 299.925781 Z M 268.542969 299.925781 " fill-opacity="1" fill-rule="nonzero"/></g></svg>