<svg xmlns="http://www.w3.org/2000/svg" xmlns:xlink="http://www.w3.org/1999/xlink" width="500" zoomAndPan="magnify" viewBox="0 0 375 374.999991" height="500" preserveAspectRatio="xMidYMid meet" version="1.0"><path fill="#35b44a" d="M 375.007812 187.5 C 375.007812 190.570312 374.933594 193.636719 374.78125 196.699219 C 374.632812 199.765625 374.40625 202.824219 374.105469 205.878906 C 373.804688 208.933594 373.429688 211.976562 372.980469 215.011719 C 372.527344 218.046875 372.003906 221.070312 371.40625 224.082031 C 370.808594 227.089844 370.136719 230.085938 369.390625 233.0625 C 368.644531 236.039062 367.824219 238.996094 366.933594 241.929688 C 366.042969 244.867188 365.082031 247.78125 364.046875 250.667969 C 363.015625 253.558594 361.910156 256.421875 360.734375 259.257812 C 359.5625 262.089844 358.316406 264.894531 357.003906 267.671875 C 355.695312 270.445312 354.3125 273.183594 352.867188 275.890625 C 351.421875 278.597656 349.910156 281.265625 348.332031 283.898438 C 346.753906 286.53125 345.113281 289.121094 343.40625 291.675781 C 341.703125 294.226562 339.9375 296.734375 338.109375 299.199219 C 336.28125 301.664062 334.394531 304.082031 332.445312 306.453125 C 330.5 308.828125 328.496094 311.148438 326.433594 313.421875 C 324.375 315.695312 322.257812 317.917969 320.089844 320.089844 C 317.917969 322.257812 315.695312 324.375 313.421875 326.433594 C 311.148438 328.496094 308.828125 330.5 306.453125 332.445312 C 304.082031 334.394531 301.664062 336.28125 299.199219 338.109375 C 296.734375 339.9375 294.226562 341.703125 291.675781 343.40625 C 289.121094 345.113281 286.53125 346.753906 283.898438 348.332031 C 281.265625 349.910156 278.597656 351.421875 275.890625 352.867188 C 273.183594 354.3125 270.445312 355.695312 267.671875 357.003906 C 264.894531 358.316406 262.089844 359.5625 259.257812 360.734375 C 256.421875 361.910156 253.558594 363.015625 250.667969 364.046875 C 247.78125 365.082031 244.867188 366.042969 241.929688 366.933594 C 238.996094 367.824219 236.039062 368.644531 233.0625 369.390625 C 230.085938 370.136719 227.089844 370.808594 224.082031 371.40625 C 221.070312 372.003906 218.046875 372.527344 215.011719 372.980469 C 211.976562 373.429688 208.933594 373.804688 205.878906 374.105469 C 202.824219 374.40625 199.765625 374.632812 196.699219 374.78125 C 193.636719 374.933594 190.570312 375.007812 187.5 375.007812 C 184.429688 375.007812 181.363281 374.933594 178.300781 374.78125 C 175.234375 374.632812 172.175781 374.40625 169.121094 374.105469 C 166.066406 373.804688 163.023438 373.429688 159.988281 372.980469 C 156.953125 372.527344 153.929688 372.003906 150.917969 371.40625 C 147.910156 370.808594 144.914062 370.136719 141.9375 369.390625 C 138.960938 368.644531 136.003906 367.824219 133.070312 366.933594 C 130.132812 366.042969 127.21875 365.082031 124.332031 364.046875 C 121.441406 363.015625 118.578125 361.910156 115.742188 360.734375 C 112.910156 359.5625 110.105469 358.316406 107.328125 357.003906 C 104.554688 355.695312 101.816406 354.3125 99.109375 352.867188 C 96.402344 351.421875 93.734375 349.910156 91.101562 348.332031 C 88.46875 346.753906 85.878906 345.113281 83.324219 343.40625 C 80.773438 341.703125 78.265625 339.9375 75.800781 338.109375 C 73.335938 336.28125 70.917969 334.394531 68.546875 332.445312 C 66.171875 330.5 63.851562 328.496094 61.578125 326.433594 C 59.304688 324.375 57.082031 322.257812 54.910156 320.089844 C 52.742188 317.917969 50.625 315.695312 48.566406 313.421875 C 46.503906 311.148438 44.5 308.828125 42.554688 306.453125 C 40.605469 304.082031 38.71875 301.664062 36.890625 299.199219 C 35.0625 296.734375 33.296875 294.226562 31.59375 291.675781 C 29.886719 289.121094 28.246094 286.53125 26.667969 283.898438 C 25.089844 281.265625 23.578125 278.597656 22.132812 275.890625 C 20.683594 273.183594 19.304688 270.445312 17.992188 267.671875 C 16.683594 264.894531 15.4375 262.089844 14.265625 259.257812 C 13.089844 256.421875 11.984375 253.558594 10.953125 250.667969 C 9.917969 247.78125 8.957031 244.867188 8.066406 241.929688 C 7.175781 238.996094 6.355469 236.039062 5.609375 233.0625 C 4.863281 230.085938 4.191406 227.089844 3.59375 224.082031 C 2.996094 221.070312 2.472656 218.046875 2.019531 215.011719 C 1.570312 211.976562 1.195312 208.933594 0.894531 205.878906 C 0.59375 202.824219 0.367188 199.765625 0.21875 196.699219 C 0.0664062 193.636719 -0.0078125 190.570312 -0.0078125 187.5 C -0.0078125 184.429688 0.0664062 181.363281 0.21875 178.300781 C 0.367188 175.234375 0.59375 172.175781 0.894531 169.121094 C 1.195312 166.066406 1.570312 163.023438 2.019531 159.988281 C 2.472656 156.953125 2.996094 153.929688 3.59375 150.917969 C 4.191406 147.910156 4.863281 144.914062 5.609375 141.9375 C 6.355469 138.960938 7.175781 136.003906 8.066406 133.070312 C 8.957031 130.132812 9.917969 127.21875 10.953125 124.332031 C 11.984375 121.441406 13.089844 118.578125 14.265625 115.742188 C 15.4375 112.910156 16.683594 110.105469 17.992188 107.328125 C 19.304688 104.554688 20.683594 101.816406 22.132812 99.109375 C 23.578125 96.402344 25.089844 93.734375 26.667969 91.101562 C 28.246094 88.46875 29.886719 85.878906 31.59375 83.324219 C 33.296875 80.773438 35.0625 78.265625 36.890625 75.800781 C 38.71875 73.335938 40.605469 70.917969 42.554688 68.546875 C 44.5 66.171875 46.503906 63.851562 48.566406 61.578125 C 50.625 59.304688 52.742188 57.082031 54.910156 54.910156 C 57.082031 52.742188 59.304688 50.625 61.578125 48.566406 C 63.851562 46.503906 66.171875 44.5 68.546875 42.554688 C 70.917969 40.605469 73.335938 38.71875 75.800781 36.890625 C 78.265625 35.0625 80.773438 33.296875 83.324219 31.59375 C 85.878906 29.886719 88.46875 28.246094 91.101562 26.667969 C 93.734375 25.089844 96.402344 23.578125 99.109375 22.132812 C 101.816406 20.683594 104.554688 19.304688 107.328125 17.992188 C 110.105469 16.683594 112.910156 15.4375 115.742188 14.265625 C 118.578125 13.089844 121.441406 11.984375 124.332031 10.953125 C 127.21875 9.917969 130.132812 8.957031 133.070312 8.066406 C 136.003906 7.175781 138.960938 6.355469 141.9375 5.609375 C 144.914062 4.863281 147.910156 4.191406 150.917969 3.59375 C 153.929688 2.996094 156.953125 2.472656 159.988281 2.019531 C 163.023438 1.570312 166.066406 1.195312 169.121094 0.894531 C 172.175781 0.59375 175.234375 0.367188 178.300781 0.21875 C 181.363281 0.0664062 184.429688 -0.0078125 187.5 -0.0078125 C 190.570312 -0.0078125 193.636719 0.0664062 196.699219 0.21875 C 199.765625 0.367188 202.824219 0.59375 205.878906 0.894531 C 208.933594 1.195312 211.976562 1.570312 215.011719 2.019531 C 218.046875 2.472656 221.070312 2.996094 224.082031 3.59375 C 227.089844 4.191406 230.085938 4.863281 233.0625 5.609375 C 236.039062 6.355469 238.996094 7.175781 241.929688 8.066406 C 244.867188 8.957031 247.78125 9.917969 250.667969 10.953125 C 253.558594 11.984375 256.421875 13.089844 259.257812 14.265625 C 262.089844 15.4375 264.894531 16.683594 267.671875 17.992188 C 270.445312 19.304688 273.183594 20.683594 275.890625 22.132812 C 278.597656 23.578125 281.265625 25.089844 283.898438 26.667969 C 286.53125 28.246094 289.121094 29.886719 291.675781 31.59375 C 294.226562 33.296875 296.734375 35.0625 299.199219 36.890625 C 301.664062 38.71875 304.082031 40.605469 306.453125 42.554688 C 308.828125 44.5 311.148438 46.503906 313.421875 48.566406 C 315.695312 50.625 317.917969 52.742188 320.089844 54.910156 C 322.257812 57.082031 324.375 59.304688 326.433594 61.578125 C 328.496094 63.851562 330.5 66.171875 332.445312 68.546875 C 334.394531 70.917969 336.28125 73.335938 338.109375 75.800781 C 339.9375 78.265625 341.703125 80.773438 343.40625 83.324219 C 345.113281 85.878906 346.753906 88.46875 348.332031 91.101562 C 349.910156 93.734375 351.421875 96.402344 352.867188 99.109375 C 354.3125 101.816406 355.695312 104.554688 357.003906 107.328125 C 358.316406 110.105469 359.5625 112.910156 360.734375 115.742188 C 361.910156 118.578125 363.015625 121.441406 364.046875 124.332031 C 365.082031 127.21875 366.042969 130.132812 366.933594 133.070312 C 367.824219 136.003906 368.644531 138.960938 369.390625 141.9375 C 370.136719 144.914062 370.808594 147.910156 371.40625 150.917969 C 372.003906 153.929688 372.527344 156.953125 372.980469 159.988281 C 373.429688 163.023438 373.804688 166.066406 374.105469 169.121094 C 374.40625 172.175781 374.632812 175.234375 374.78125 178.300781 C 374.933594 181.363281 375.007812 184.429688 375.007812 187.5 Z M 375.007812 187.5 " fill-opacity="1" fill-rule="nonzero"/><path fill="#ffffff" d="M 238.261719 238.9375 L 243.921875 233.277344 C 244.542969 232.65625 245.085938 231.972656 245.546875 231.226562 C 246.007812 230.476562 246.375 229.6875 246.652344 228.855469 C 246.929688 228.023438 247.105469 227.167969 247.183594 226.292969 C 247.261719 225.417969 247.238281 224.546875 247.109375 223.679688 C 246.957031 222.621094 246.660156 221.605469 246.21875 220.632812 C 245.777344 219.660156 245.207031 218.769531 244.515625 217.957031 C 243.820312 217.144531 243.023438 216.449219 242.132812 215.863281 C 241.238281 215.277344 240.28125 214.824219 239.261719 214.511719 L 215.941406 207.339844 C 215.417969 207.175781 214.878906 207.089844 214.328125 207.074219 C 213.78125 207.058594 213.238281 207.117188 212.707031 207.25 C 212.171875 207.382812 211.664062 207.582031 211.1875 207.855469 C 210.707031 208.125 210.273438 208.453125 209.886719 208.84375 L 202.417969 216.308594 C 202.101562 216.625 201.722656 216.8125 201.277344 216.875 C 200.835938 216.933594 200.417969 216.855469 200.027344 216.632812 C 195.917969 214.316406 191.980469 211.730469 188.222656 208.878906 C 184.464844 206.023438 180.917969 202.929688 177.578125 199.59375 C 174.242188 196.257812 171.148438 192.707031 168.292969 188.949219 C 165.441406 185.191406 162.855469 181.253906 160.535156 177.144531 C 160.316406 176.753906 160.238281 176.335938 160.296875 175.894531 C 160.359375 175.449219 160.546875 175.070312 160.863281 174.753906 L 168.328125 167.285156 C 168.71875 166.898438 169.046875 166.464844 169.316406 165.984375 C 169.589844 165.507812 169.789062 165 169.921875 164.46875 C 170.054688 163.933594 170.113281 163.390625 170.097656 162.84375 C 170.082031 162.292969 169.996094 161.757812 169.832031 161.230469 L 162.660156 137.914062 C 162.347656 136.890625 161.894531 135.933594 161.308594 135.042969 C 160.722656 134.148438 160.027344 133.355469 159.214844 132.660156 C 158.402344 131.964844 157.511719 131.394531 156.539062 130.953125 C 155.566406 130.511719 154.550781 130.214844 153.492188 130.0625 C 152.625 129.9375 151.753906 129.910156 150.878906 129.988281 C 150.003906 130.066406 149.148438 130.242188 148.316406 130.519531 C 147.484375 130.796875 146.695312 131.167969 145.945312 131.628906 C 145.199219 132.089844 144.515625 132.628906 143.894531 133.25 L 138.234375 138.910156 C 136.515625 140.628906 135.199219 142.609375 134.277344 144.851562 C 133.355469 147.097656 132.902344 149.429688 132.917969 151.859375 C 132.933594 154.667969 133.089844 157.46875 133.378906 160.261719 C 133.671875 163.054688 134.09375 165.828125 134.65625 168.582031 C 135.21875 171.332031 135.910156 174.050781 136.738281 176.734375 C 137.5625 179.421875 138.515625 182.058594 139.601562 184.648438 C 140.683594 187.242188 141.890625 189.773438 143.21875 192.25 C 144.546875 194.722656 145.996094 197.125 147.558594 199.457031 C 149.125 201.792969 150.796875 204.042969 152.582031 206.210938 C 154.363281 208.382812 156.25 210.460938 158.234375 212.445312 L 164.722656 218.933594 C 166.707031 220.917969 168.785156 222.804688 170.957031 224.585938 C 173.125 226.371094 175.375 228.042969 177.710938 229.609375 C 180.042969 231.171875 182.445312 232.621094 184.921875 233.949219 C 187.394531 235.28125 189.925781 236.484375 192.519531 237.570312 C 195.109375 238.652344 197.75 239.605469 200.433594 240.433594 C 203.117188 241.257812 205.835938 241.949219 208.589844 242.511719 C 211.339844 243.074219 214.113281 243.5 216.90625 243.789062 C 219.699219 244.078125 222.503906 244.234375 225.3125 244.25 C 227.738281 244.265625 230.074219 243.816406 232.320312 242.894531 C 234.5625 241.972656 236.542969 240.65625 238.261719 238.9375 Z M 238.261719 238.9375 " fill-opacity="1" fill-rule="nonzero"/><path fill="#ffffff" d="M 187.71875 303.53125 C 178.007812 303.535156 168.445312 302.351562 159.03125 299.972656 C 149.613281 297.597656 140.632812 294.105469 132.089844 289.492188 C 130.785156 288.796875 129.398438 288.367188 127.929688 288.207031 C 126.460938 288.042969 125.015625 288.164062 123.59375 288.558594 L 72.730469 302.1875 L 86.359375 251.324219 C 86.753906 249.902344 86.875 248.453125 86.710938 246.984375 C 86.550781 245.515625 86.121094 244.128906 85.425781 242.824219 C 82.515625 237.429688 80.046875 231.839844 78.015625 226.058594 C 75.980469 220.273438 74.414062 214.371094 73.308594 208.339844 C 72.207031 202.3125 71.578125 196.234375 71.429688 190.109375 C 71.28125 183.980469 71.609375 177.878906 72.417969 171.804688 C 73.238281 165.597656 74.558594 159.5 76.375 153.511719 C 78.191406 147.519531 80.484375 141.71875 83.25 136.101562 C 86.011719 130.484375 89.214844 125.128906 92.851562 120.035156 C 96.492188 114.941406 100.519531 110.175781 104.9375 105.738281 C 149.160156 61.050781 222.128906 59.972656 267.601562 103.335938 C 269.6875 105.316406 271.703125 107.375 273.636719 109.511719 C 275.574219 111.644531 277.425781 113.84375 279.199219 116.117188 C 280.96875 118.386719 282.65625 120.722656 284.253906 123.117188 C 285.851562 125.515625 287.355469 127.96875 288.773438 130.476562 C 290.1875 132.984375 291.507812 135.542969 292.730469 138.152344 C 293.957031 140.757812 295.082031 143.40625 296.109375 146.097656 C 297.136719 148.789062 298.0625 151.515625 298.886719 154.277344 C 299.710938 157.035156 300.433594 159.824219 301.050781 162.636719 C 301.667969 165.449219 302.179688 168.285156 302.585938 171.136719 C 302.992188 173.988281 303.289062 176.851562 303.480469 179.722656 C 303.675781 182.597656 303.761719 185.476562 303.738281 188.355469 C 303.71875 191.238281 303.589844 194.113281 303.351562 196.984375 C 303.117188 199.855469 302.777344 202.710938 302.328125 205.558594 C 301.878906 208.402344 301.324219 211.226562 300.664062 214.03125 C 300.007812 216.835938 299.246094 219.613281 298.378906 222.359375 C 297.511719 225.105469 296.546875 227.820312 295.480469 230.492188 C 294.410156 233.167969 293.246094 235.800781 291.980469 238.390625 C 290.71875 240.980469 289.359375 243.515625 287.90625 246.003906 C 286.457031 248.492188 284.914062 250.921875 283.277344 253.292969 C 281.644531 255.667969 279.925781 257.976562 278.121094 260.21875 C 276.316406 262.464844 274.429688 264.640625 272.460938 266.742188 C 270.492188 268.847656 268.449219 270.875 266.332031 272.828125 C 264.214844 274.777344 262.027344 276.648438 259.769531 278.4375 C 257.511719 280.226562 255.1875 281.929688 252.804688 283.546875 C 250.417969 285.164062 247.976562 286.6875 245.480469 288.121094 C 242.980469 289.554688 240.433594 290.894531 237.835938 292.140625 C 235.238281 293.382812 232.597656 294.53125 229.914062 295.578125 C 227.230469 296.625 224.511719 297.574219 221.757812 298.417969 C 219.003906 299.265625 216.222656 300.007812 213.414062 300.644531 C 210.605469 301.28125 207.777344 301.816406 204.929688 302.242188 C 202.082031 302.671875 199.21875 302.992188 196.347656 303.207031 C 193.472656 303.421875 190.597656 303.527344 187.71875 303.53125 Z M 126.726562 277.269531 C 130.46875 277.265625 133.984375 278.15625 137.273438 279.941406 C 142.179688 282.589844 147.269531 284.835938 152.53125 286.679688 C 157.796875 288.527344 163.171875 289.949219 168.660156 290.945312 C 174.148438 291.945312 179.679688 292.507812 185.257812 292.632812 C 190.832031 292.757812 196.382812 292.445312 201.910156 291.695312 C 204.347656 291.359375 206.773438 290.9375 209.179688 290.429688 C 211.589844 289.921875 213.976562 289.332031 216.34375 288.65625 C 218.707031 287.984375 221.046875 287.226562 223.363281 286.386719 C 225.675781 285.550781 227.957031 284.632812 230.207031 283.632812 C 232.453125 282.636719 234.667969 281.558594 236.839844 280.40625 C 239.011719 279.253906 241.144531 278.023438 243.230469 276.722656 C 245.320312 275.417969 247.359375 274.042969 249.351562 272.597656 C 251.339844 271.152344 253.277344 269.636719 255.164062 268.058594 C 257.050781 266.476562 258.875 264.828125 260.644531 263.121094 C 262.414062 261.410156 264.121094 259.640625 265.769531 257.808594 C 267.414062 255.980469 268.992188 254.09375 270.507812 252.15625 C 272.019531 250.214844 273.460938 248.222656 274.835938 246.179688 C 276.210938 244.140625 277.511719 242.054688 278.738281 239.921875 C 279.964844 237.785156 281.117188 235.613281 282.191406 233.398438 C 283.265625 231.1875 284.261719 228.9375 285.179688 226.65625 C 286.097656 224.371094 286.933594 222.058594 287.6875 219.714844 C 288.441406 217.375 289.113281 215.007812 289.703125 212.621094 C 290.292969 210.230469 290.796875 207.824219 291.214844 205.398438 C 291.636719 202.976562 291.972656 200.539062 292.222656 198.089844 C 292.46875 195.640625 292.632812 193.1875 292.710938 190.730469 C 292.789062 188.269531 292.78125 185.808594 292.683594 183.351562 C 292.589844 180.890625 292.40625 178.441406 292.140625 175.992188 C 291.875 173.546875 291.519531 171.113281 291.082031 168.691406 C 290.644531 166.269531 290.125 163.867188 289.515625 161.484375 C 288.910156 159.097656 288.222656 156.738281 287.449219 154.402344 C 286.679688 152.0625 285.824219 149.757812 284.890625 147.480469 C 283.957031 145.203125 282.945312 142.964844 281.855469 140.757812 C 280.765625 138.550781 279.597656 136.386719 278.355469 134.261719 C 277.113281 132.140625 275.796875 130.0625 274.40625 128.03125 C 273.019531 126 271.5625 124.019531 270.035156 122.089844 C 268.507812 120.160156 266.914062 118.285156 265.253906 116.46875 C 263.597656 114.648438 261.875 112.894531 260.09375 111.195312 C 218.882812 71.894531 152.746094 72.875 112.660156 113.382812 C 108.65625 117.402344 105.003906 121.71875 101.707031 126.335938 C 98.410156 130.953125 95.507812 135.804688 93.003906 140.894531 C 90.496094 145.984375 88.421875 151.242188 86.773438 156.671875 C 85.128906 162.101562 83.933594 167.628906 83.1875 173.25 C 82.453125 178.757812 82.15625 184.289062 82.289062 189.84375 C 82.425781 195.398438 82.992188 200.90625 83.992188 206.371094 C 84.992188 211.835938 86.414062 217.191406 88.253906 222.433594 C 90.097656 227.675781 92.335938 232.738281 94.972656 237.628906 C 95.648438 238.882812 96.199219 240.1875 96.625 241.542969 C 97.050781 242.902344 97.34375 244.285156 97.507812 245.699219 C 97.667969 247.113281 97.695312 248.53125 97.582031 249.949219 C 97.472656 251.367188 97.230469 252.761719 96.855469 254.132812 L 88.101562 286.8125 L 120.777344 278.054688 C 122.726562 277.53125 124.710938 277.269531 126.726562 277.269531 Z M 126.726562 277.269531 " fill-opacity="1" fill-rule="nonzero"/></svg>